<!DOCTYPE svg PUBLIC "-//W3C//DTD SVG 1.1//EN" "http://www.w3.org/Graphics/SVG/1.1/DTD/svg11.dtd">

<!-- Uploaded to: SVG Repo, www.svgrepo.com, Transformed by: SVG Repo Mixer Tools -->
<svg width="800px" height="800px" viewBox="0 0 128 128" xmlns="http://www.w3.org/2000/svg" xmlns:xlink="http://www.w3.org/1999/xlink" aria-hidden="true" role="img" class="iconify iconify--noto" preserveAspectRatio="xMidYMid meet" fill="#000000">

<g id="SVGRepo_bgCarrier" stroke-width="0"/>

<g id="SVGRepo_tracerCarrier" stroke-linecap="round" stroke-linejoin="round"/>

<g id="SVGRepo_iconCarrier">

<circle cx="64" cy="64" r="60" fill="#F7931A"/>

<path d="M89.5 50.9c1.2-8.1-5-12.5-13.5-15.4l2.8-11.1-6.8-1.7-2.7 10.8c-1.8-0.4-3.6-0.8-5.4-1.2l2.7-10.9-6.8-1.7-2.8 11.1c-1.5-0.3-2.9-0.6-4.3-1l0-0.1-9.3-2.3-1.8 7.2s5 1.1 4.9 1.2c2.7 0.7 3.2 2.4 3.1 3.8l-3.1 12.5c0.2 0 0.4 0.1 0.7 0.2l-0.7-0.2-4.4 17.5c-0.3 0.8-1.1 2-2.9 1.5 0.1 0.1-4.9-1.2-4.9-1.2l-3.3 7.7 8.8 2.2c1.6 0.4 3.2 0.8 4.8 1.2l-2.8 11.3 6.8 1.7 2.8-11.1c1.9 0.5 3.7 1 5.4 1.4l-2.8 11 6.8 1.7 2.8-11.3c11.7 2.2 20.5 1.3 24.2-9.3 3-8.5-0.1-13.4-6.3-16.6 4.5-1 7.9-4 8.8-10.1zM75.4 79.9c-2.1 8.5-16.4 3.9-21.1 2.8l3.8-15.1c4.7 1.2 19.7 3.5 17.3 12.3zm2.1-22.1c-1.9 7.7-13.8 3.8-17.6 2.8l3.4-13.7c3.8 1 16.1 2.8 14.2 10.9z" fill="white"/>

</g>

</svg>
